<svg width="49" height="44" viewBox="0 0 49 44" fill="none" xmlns="http://www.w3.org/2000/svg">
<path d="M40.2878 14.2469C39.7663 14.0665 39.2404 13.8994 38.7106 13.7457C38.7996 13.379 38.8815 13.0168 38.9542 12.661C40.1482 6.81726 39.3677 2.10945 36.7016 0.559413C34.1453 -0.926552 29.9648 0.622904 25.7428 4.32759C25.3267 4.69335 24.9198 5.06966 24.5226 5.45615C24.2567 5.19915 23.986 4.94713 23.7108 4.70024C19.2859 0.73908 14.8506 -0.930412 12.1874 0.624062C9.63348 2.11466 8.87723 6.54033 9.95217 12.0785C10.0591 12.627 10.1799 13.1727 10.3143 13.715C9.6865 13.8949 9.08069 14.0863 8.50093 14.2901C3.31305 16.1138 0 18.9717 0 21.9361C0 24.9977 3.55671 28.0687 8.96011 29.9308C9.39817 30.0811 9.83988 30.2204 10.2848 30.3486C10.1403 30.9327 10.012 31.5207 9.90011 32.112C8.87532 37.5542 9.67559 41.8752 12.2226 43.3564C14.8533 44.8859 19.2687 43.3139 23.5679 39.5247C23.9165 39.2166 24.2574 38.8999 24.5903 38.5746C25.0205 38.9931 25.4622 39.3995 25.9149 39.7931C30.0795 43.4062 34.1924 44.8651 36.737 43.3799C39.3652 41.8459 40.2194 37.2039 39.1104 31.5563C39.0231 31.1138 38.9251 30.6735 38.8166 30.2359C39.1267 30.1432 39.431 30.0479 39.7277 29.9487C45.3451 28.0723 49 25.0387 49 21.9361C49 18.9609 45.58 16.0837 40.2878 14.2469V14.2469ZM39.0695 27.9456C38.8015 28.0349 38.5266 28.1212 38.2464 28.2051C37.6263 26.2257 36.7894 24.121 35.7652 21.9463C36.7425 19.8235 37.5472 17.7457 38.1499 15.7792C38.6512 15.9254 39.1376 16.0796 39.6065 16.2423C44.141 17.8163 46.9068 20.1431 46.9068 21.9361C46.9068 23.8458 43.9197 26.3251 39.0695 27.9456V27.9456ZM37.057 31.9662C37.5474 34.4633 37.6173 36.7212 37.2924 38.4865C37.0007 40.0726 36.4139 41.1299 35.6881 41.5535C34.144 42.4548 30.8417 41.2833 27.2802 38.1933C26.8591 37.8273 26.4483 37.4495 26.0481 37.0605C27.4289 35.5381 28.8087 33.7682 30.1555 31.8025C32.5243 31.5906 34.7622 31.244 36.7917 30.771C36.8916 31.1776 36.9805 31.5763 37.057 31.9662V31.9662ZM16.7052 41.3978C15.1965 41.9349 13.9949 41.9503 13.2685 41.528C11.7229 40.6293 11.0803 37.1597 11.9568 32.5057C12.061 31.9558 12.1802 31.4089 12.3145 30.8656C14.3216 31.3133 16.5432 31.6352 18.9176 31.8293C20.2736 33.7528 21.6932 35.5207 23.124 37.0688C22.8199 37.3654 22.5087 37.6545 22.1905 37.9357C20.2893 39.6112 18.3842 40.7999 16.7052 41.3978V41.3978ZM9.6373 27.9338C7.24798 27.1103 5.27477 26.0402 3.9223 24.8725C2.70687 23.8233 2.09341 22.7813 2.09341 21.9361C2.09341 20.1371 4.75338 17.8425 9.18999 16.283C9.72841 16.0939 10.2919 15.9154 10.8767 15.7479C11.4899 17.7588 12.2942 19.8613 13.2648 21.9874C12.2816 24.145 11.4658 26.2811 10.8466 28.3157C10.4405 28.1984 10.0372 28.0711 9.6373 27.9338V27.9338ZM12.0065 11.6731C11.0857 6.92822 11.6972 3.34897 13.2363 2.45064C14.8755 1.49383 18.5004 2.85803 22.321 6.27845C22.5702 6.502 22.8153 6.73007 23.0562 6.96257C21.6325 8.50392 20.2259 10.2587 18.882 12.1708C16.5775 12.3862 14.3715 12.732 12.3434 13.1953C12.2184 12.6909 12.1061 12.1834 12.0065 11.6733V11.6731ZM33.1429 16.9353C32.6639 16.101 32.1671 15.2773 31.6529 14.4646C33.2163 14.6639 34.7142 14.9285 36.1208 15.2519C35.6986 16.6167 35.1722 18.0434 34.5527 19.5062C34.0998 18.6399 33.6298 17.7827 33.1429 16.9353V16.9353ZM24.5235 8.47092C25.489 9.52557 26.456 10.703 27.4071 11.9805C25.4777 11.8886 23.5451 11.8882 21.6157 11.9793C22.5678 10.7136 23.543 9.53773 24.5235 8.47092ZM15.8488 16.9498C15.3681 17.7904 14.9068 18.6422 14.4655 19.5045C13.8561 18.0469 13.3345 16.6136 12.9086 15.2296C14.3067 14.9142 15.7975 14.6564 17.351 14.4607C16.831 15.2784 16.3301 16.1082 15.8488 16.9496V16.9498ZM17.3956 29.5616C15.7906 29.381 14.2774 29.1365 12.8797 28.8296C13.3123 27.4208 13.8454 25.9571 14.468 24.4682C14.9111 25.3311 15.3742 26.1835 15.8571 27.0245C16.3536 27.889 16.8677 28.7358 17.3956 29.5616ZM24.5813 35.5498C23.5891 34.4707 22.5995 33.2767 21.6331 31.9926C22.5714 32.0296 23.5278 32.0486 24.5 32.0486C25.4988 32.0486 26.486 32.026 27.4578 31.9824C26.5036 33.2896 25.5403 34.4853 24.5813 35.5498ZM34.5724 24.3922C35.2274 25.8974 35.7794 27.3535 36.2177 28.7381C34.7971 29.065 33.2632 29.3283 31.6469 29.5238C32.1648 28.696 32.6663 27.8579 33.1512 27.01C33.6441 26.1481 34.118 25.2753 34.5724 24.3922V24.3922ZM31.338 25.9555C30.5958 27.2555 29.8118 28.5308 28.9873 29.7795C27.4939 29.8861 25.9972 29.9391 24.5 29.9383C22.9751 29.9383 21.4919 29.8904 20.0636 29.797C19.2176 28.5513 18.4187 27.2737 17.6685 25.9671H17.6687C16.9221 24.6674 16.2247 23.3395 15.578 21.9864C16.223 20.633 16.9183 19.3046 17.6624 18.0039L17.6622 18.0041C18.406 16.703 19.1986 15.4309 20.0381 14.1905C21.4953 14.0794 22.9896 14.0215 24.4998 14.0215H24.5C26.0171 14.0215 27.5133 14.08 28.9701 14.1919C29.8012 15.4304 30.5887 16.6981 31.3311 17.9927C32.0777 19.2905 32.7822 20.6125 33.4435 21.9565C32.7889 23.3143 32.0867 24.6482 31.338 25.9555V25.9555ZM35.6561 2.38773C37.2968 3.34183 37.935 7.18932 36.9041 12.2349C36.8382 12.5567 36.7644 12.8846 36.684 13.2171C34.6508 12.7439 32.4434 12.3921 30.1321 12.1735C28.7858 10.2404 27.3906 8.48289 25.9901 6.96141C26.3571 6.60469 26.7329 6.25721 27.1171 5.91931C30.7347 2.74533 34.1157 1.4921 35.6561 2.38773V2.38773ZM24.5 17.5245C26.9165 17.5245 28.8755 19.4997 28.8755 21.9361C28.8755 24.3725 26.9165 26.3477 24.5 26.3477C22.0835 26.3477 20.1245 24.3725 20.1245 21.9361C20.1245 19.4997 22.0835 17.5245 24.5 17.5245V17.5245Z" fill="#00D8FF"/>
</svg>
