<svg width="81" height="48" viewBox="0 0 81 48" fill="none" xmlns="http://www.w3.org/2000/svg">
<g clip-path="url(#clip0)">
<path d="M23.5705 17.3923C23.5705 18.3765 23.6768 19.1743 23.8621 19.7594C24.0973 20.4176 24.3806 21.0576 24.7096 21.674C24.8421 21.8867 24.8949 22.0995 24.8949 22.2858C24.8949 22.5515 24.7361 22.8176 24.3918 23.0836L22.723 24.2005C22.4846 24.3602 22.2461 24.4398 22.034 24.4398C21.7693 24.4398 21.5043 24.3068 21.2393 24.0674C20.8824 23.6824 20.5631 23.2638 20.2858 22.8176C20.0208 22.3658 19.7558 21.8601 19.4646 21.2486C17.3983 23.6951 14.8021 24.9186 11.6765 24.9186C9.45146 24.9186 7.67646 24.2802 6.37833 23.0039C5.08052 21.7271 4.41833 20.0251 4.41833 17.8977C4.41833 15.6373 5.21302 13.8024 6.82896 12.4195C8.44458 11.0366 10.5905 10.3451 13.319 10.3451C14.2196 10.3451 15.1468 10.4248 16.1268 10.5578C17.1071 10.6908 18.1136 10.9035 19.1733 11.1429V9.20157C19.1733 7.18024 18.7493 5.77098 17.928 4.94651C17.0805 4.12204 15.6499 3.72298 13.6102 3.72298C12.683 3.72298 11.7296 3.82965 10.7493 4.06902C9.76927 4.30808 8.81552 4.60079 7.88833 4.97318C7.46458 5.15922 7.14677 5.26557 6.96115 5.31891C6.77583 5.37224 6.64333 5.39859 6.5374 5.39859C6.16646 5.39859 5.98115 5.13255 5.98115 4.57412V3.27091C5.98115 2.84549 6.03427 2.52644 6.16646 2.3404C6.29896 2.15404 6.5374 1.968 6.90833 1.78197C7.83552 1.30322 8.94802 0.904162 10.2458 0.585104C11.5443 0.239378 12.9218 0.0800057 14.3786 0.0800057C17.5311 0.0800057 19.8358 0.797809 21.3193 2.23404C22.7761 3.66997 23.518 5.85067 23.518 8.77616V17.3923H23.5711H23.5705ZM12.8155 21.4347C13.6899 21.4347 14.5905 21.2753 15.544 20.9559C16.4977 20.6369 17.3455 20.0518 18.0605 19.254C18.4846 18.7489 18.8024 18.1904 18.9611 17.552C19.1202 16.9139 19.2261 16.1424 19.2261 15.2383V14.1214C18.4228 13.9251 17.6091 13.7742 16.789 13.6693C15.9631 13.564 15.1315 13.5107 14.299 13.5096C12.524 13.5096 11.2261 13.8554 10.3521 14.5735C9.47771 15.2916 9.05396 16.3021 9.05396 17.6317C9.05396 18.8816 9.37177 19.8124 10.034 20.4508C10.6699 21.1156 11.5971 21.4347 12.8155 21.4347ZM34.0871 24.3068C33.6102 24.3068 33.2924 24.2271 33.0805 24.0408C32.8686 23.8814 32.683 23.509 32.5243 23.0039L26.2993 2.44675C26.1399 1.91467 26.0605 1.56895 26.0605 1.38291C26.0605 0.957496 26.2724 0.717809 26.6965 0.717809H29.2924C29.7955 0.717809 30.1402 0.797809 30.3255 0.983848C30.5374 1.14353 30.6965 1.51593 30.8552 2.02102L35.3055 19.6264L39.438 2.02102C39.5705 1.48926 39.7296 1.14353 39.9411 0.983848C40.1533 0.824476 40.5243 0.718123 41.0011 0.718123H43.1202C43.6233 0.718123 43.968 0.797809 44.1796 0.983848C44.3918 1.14353 44.5771 1.51593 44.683 2.02102L48.8686 19.8391L53.4511 2.02102C53.6099 1.48926 53.7955 1.14353 53.9808 0.983848C54.1927 0.824476 54.5371 0.718123 55.014 0.718123H57.4774C57.9015 0.718123 58.1399 0.930829 58.1399 1.38291C58.1399 1.51593 58.1133 1.64895 58.0868 1.80832C58.0602 1.968 58.0074 2.18071 57.9015 2.47342L51.5171 23.0303C51.3583 23.5623 51.173 23.9081 50.9608 24.0674C50.749 24.2271 50.4046 24.3335 49.9546 24.3335H47.6765C47.173 24.3335 46.8286 24.2538 46.6165 24.0674C46.4046 23.8814 46.2193 23.5357 46.1133 23.0039L42.0071 5.85067L37.9277 22.9769C37.7955 23.509 37.6365 23.8547 37.4246 24.0408C37.2127 24.2271 36.8418 24.3068 36.3652 24.3068H34.0868H34.0871ZM68.1268 25.0249C66.7493 25.0249 65.3718 24.8653 64.0474 24.5462C62.7227 24.2271 61.6899 23.8811 61.0011 23.4827C60.5771 23.243 60.2855 22.9773 60.1799 22.7379C60.0767 22.5031 60.0226 22.2497 60.0208 21.9931V20.6369C60.0208 20.0784 60.2327 19.8124 60.6302 19.8124C60.7924 19.813 60.9535 19.84 61.1071 19.8924C61.2658 19.9457 61.5043 20.0518 61.7693 20.1581C62.7049 20.5713 63.6816 20.8833 64.683 21.0889C65.7206 21.3003 66.7767 21.4072 67.8355 21.408C69.5043 21.408 70.8024 21.1156 71.703 20.5305C72.6036 19.9454 73.0805 19.0946 73.0805 18.0041C73.0805 17.2596 72.8421 16.6478 72.3652 16.1424C71.8883 15.6373 70.9877 15.1853 69.6899 14.7595L65.8486 13.563C63.9149 12.9512 62.4846 12.0471 61.6102 10.8502C60.7361 9.68 60.2858 8.3771 60.2858 6.9942C60.2858 5.87734 60.5243 4.89318 61.0011 4.04204C61.4777 3.19122 62.1136 2.44675 62.9083 1.86165C63.703 1.24989 64.6036 0.797809 65.6633 0.478751C66.7227 0.159692 67.8352 0.0266724 69.0008 0.0266724C69.5836 0.0266724 70.193 0.053339 70.7758 0.133025C71.3852 0.212712 71.9414 0.319064 72.4977 0.425417C73.0274 0.558437 73.5308 0.691456 74.0077 0.851143C74.4846 1.01052 74.8552 1.1702 75.1202 1.32957C75.4911 1.54259 75.7558 1.7553 75.9149 1.99467C76.0739 2.20738 76.1533 2.49977 76.1533 2.87216V4.12204C76.1533 4.68047 75.9414 4.97318 75.5439 4.97318C75.3321 4.97318 74.9877 4.86651 74.5377 4.65381C73.0274 3.96236 71.3321 3.61663 69.4514 3.61663C67.9414 3.61663 66.7493 3.856 65.928 4.36142C65.1071 4.86651 64.683 5.63796 64.683 6.72816C64.683 7.47294 64.948 8.11106 65.4777 8.61647C66.0077 9.12157 66.9877 9.62698 68.3918 10.0791L72.1533 11.2759C74.0605 11.8877 75.438 12.7385 76.2593 13.8287C77.0805 14.9192 77.478 16.1691 77.478 17.552C77.478 18.6955 77.2393 19.7327 76.7889 20.6369C76.3124 21.541 75.6764 22.3388 74.8552 22.9773C74.0339 23.642 73.0539 24.1208 71.9149 24.4665C70.7227 24.8389 69.4777 25.0249 68.1268 25.0249V25.0249Z" fill="#252F3E"/>
<path d="M73.1332 37.9495C64.4182 44.4119 51.7557 47.8425 40.8686 47.8425C25.6101 47.8425 11.862 42.1779 1.47793 32.7636C0.656679 32.0191 1.39824 31.0086 2.37824 31.5934C13.6101 38.1358 27.4645 42.0982 41.7957 42.0982C51.4645 42.0982 62.087 40.0772 71.862 35.9285C73.3189 35.2634 74.5639 36.886 73.1332 37.9495V37.9495ZM76.7626 33.8008C75.6501 32.3649 69.3982 33.1093 66.5639 33.4551C65.716 33.5617 65.5836 32.8169 66.352 32.2585C71.332 28.7479 79.5176 29.7587 80.4711 30.9286C81.4248 32.1255 80.2061 40.3429 75.5439 44.2789C74.8289 44.8907 74.1401 44.5716 74.4579 43.7738C75.5173 41.1407 77.8751 35.2104 76.7626 33.8008V33.8008Z" fill="#FF9900"/>
</g>
<defs>
<clipPath id="clip0">
<rect width="80" height="48" fill="white" transform="translate(0.947998)"/>
</clipPath>
</defs>
</svg>
