<svg width="86" height="61" viewBox="0 0 86 61" fill="none" xmlns="http://www.w3.org/2000/svg">
<g clip-path="url(#clip0)">
<path d="M84.1937 23.245C82.2795 21.926 77.8931 21.4314 74.4639 22.0909C74.0654 18.7936 72.2309 15.9088 69.0408 13.3534L67.2067 12.0345L65.9303 13.9304C64.3356 16.4034 63.538 19.8656 63.7771 23.1629C63.8568 24.3166 64.2556 26.3774 65.4519 28.1909C64.3356 28.8504 62.0226 29.6747 58.9922 29.6747H1.33165L1.17227 30.3341C0.613796 33.6311 0.613796 43.9348 7.15348 51.848C12.0981 57.8653 19.4353 60.9153 29.0851 60.9153C49.9799 60.9153 65.4519 50.9409 72.7094 32.8892C75.5805 32.9717 81.7214 32.8892 84.8319 26.7068C84.9116 26.5419 85.0709 26.2122 85.6291 24.976L85.9482 24.3166L84.1937 23.245ZM47.4279 0H38.6556V8.24291H47.4279V0ZM47.4279 9.89156H38.6556V18.1345H47.4279V9.89123V9.89156ZM37.0602 9.89156H28.2879V18.1345H37.0602V9.89123V9.89156ZM26.6925 9.89156H17.9199V18.1345H26.6925V9.89123V9.89156ZM16.3249 19.7831H7.55225V28.026H16.3245V19.7828L16.3249 19.7831ZM26.6925 19.7831H17.9199V28.026H26.6925V19.7828V19.7831ZM37.0602 19.7831H28.2879V28.026H37.0602V19.7828V19.7831ZM47.4282 19.7831H38.6553V28.026H47.4282V19.7828V19.7831ZM57.7959 19.7831H49.023V28.026H57.7959V19.7828V19.7831Z" fill="#2396ED"/>
</g>
<defs>
<clipPath id="clip0">
<rect width="85" height="61" fill="white" transform="translate(0.947998)"/>
</clipPath>
</defs>
</svg>
