<svg width="30" height="29" viewBox="0 0 30 29" fill="none" xmlns="http://www.w3.org/2000/svg">
<path d="M23.054 16.235L23.044 16.255L23.206 16.261C23.313 16.266 23.424 16.271 23.536 16.278C23.49 16.274 23.446 16.268 23.4 16.265L23.054 16.235V16.235ZM15.198 0C7.328 0 0.947998 6.38 0.947998 14.25C0.947998 22.12 7.328 28.5 15.198 28.5C23.068 28.5 29.448 22.12 29.448 14.25C29.448 6.38 23.068 0 15.198 0ZM3.468 15.842C4.39561 15.7451 5.32736 15.6931 6.26 15.686C6.522 15.686 6.767 15.68 6.977 15.674C7.039 15.887 7.112 16.094 7.195 16.287H7.189C5.98915 16.3381 4.79464 16.4768 3.615 16.702C3.555 16.419 3.507 16.132 3.468 15.842V15.842ZM11.894 20.972C11.794 21.002 11.67 21.042 11.537 21.09C11.057 21.26 10.871 21.297 10.387 21.297C9.884 21.312 9.765 21.277 9.465 21.127C9.00236 20.8996 8.61469 20.5442 8.348 20.103C7.896 19.357 7.113 18.828 6.46 18.828C5.9 18.828 5.796 19.055 6.2 19.385C6.807 19.881 7.26 20.383 7.447 20.77C7.551 20.985 7.712 21.316 7.804 21.514C7.904 21.72 8.114 21.988 8.314 22.19C8.787 22.63 9.244 22.85 9.924 22.962C10.378 23.022 10.49 23.022 11.028 22.958C11.288 22.928 11.508 22.891 11.704 22.84V23.61C11.704 24.66 11.696 25.24 11.674 25.556C9.67726 24.9326 7.88116 23.7917 6.46829 22.2492C5.05541 20.7067 4.07613 18.8176 3.63 16.774C4.74671 16.5762 5.87237 16.4326 7.003 16.344L7.211 16.326C7.609 17.251 8.221 17.956 9.087 18.506C9.617 18.842 10.467 19.19 10.894 19.238C11.012 19.258 11.354 19.328 11.654 19.398C11.956 19.464 12.544 19.57 12.964 19.634H12.972C12.965 19.652 12.958 19.654 12.95 19.654C12.444 19.919 12.115 20.329 11.893 20.974L11.894 20.972ZM13.43 25.956C13.2628 25.9302 13.0961 25.9012 12.93 25.869C12.954 25.583 12.968 25.084 12.984 24.146C13.012 22.379 13.024 22.206 13.14 21.956C13.21 21.806 13.31 21.636 13.366 21.6C13.461 21.523 13.466 21.677 13.466 23.79C13.466 24.893 13.461 25.536 13.43 25.957V25.956ZM15.198 26.088C15.05 26.088 14.902 26.081 14.755 26.075C14.841 25.513 14.859 24.647 14.861 23.205L14.864 21.385L15.061 21.403L15.261 21.423L15.291 23.788C15.309 24.998 15.319 25.666 15.367 26.084C15.31 26.084 15.255 26.087 15.197 26.087L15.198 26.088ZM16.704 25.988C16.664 25.503 16.667 24.745 16.677 23.435C16.695 21.569 16.695 21.569 16.807 21.665C17.053 21.912 17.112 22.289 17.112 24.039C17.112 24.969 17.122 25.537 17.194 25.916C17.031 25.946 16.867 25.969 16.704 25.989V25.988ZM26.787 16.675C25.713 16.4723 24.6271 16.3387 23.536 16.275C24.786 16.383 25.862 16.523 26.781 16.693C26.3087 18.9394 25.1918 20.9994 23.567 22.621C22.167 24.021 20.417 25.069 18.462 25.629C18.428 25.295 18.404 24.582 18.396 23.419C18.366 21.251 18.356 21.155 18.226 20.816C18.0629 20.3933 17.7809 20.0269 17.414 19.761C17.3206 19.7013 17.2197 19.6543 17.114 19.621C17.258 19.601 17.394 19.601 17.54 19.564C18.958 19.376 19.708 19.207 20.312 18.98C21.575 18.49 22.442 17.68 22.918 16.513C22.962 16.41 23.006 16.313 23.041 16.233L23.051 16.235C23.0696 16.1918 23.0913 16.15 23.116 16.11C23.136 16.093 23.152 16.025 23.154 15.96C23.154 15.922 23.171 15.802 23.194 15.642C23.444 15.652 23.774 15.66 24.134 15.662C25.092 15.67 26.078 15.726 26.927 15.818C26.891 16.106 26.845 16.394 26.787 16.678V16.675ZM25.52 15.618C24.7509 15.5718 23.9804 15.5527 23.21 15.561C23.23 15.458 23.246 15.343 23.268 15.225C23.352 14.771 23.38 14.313 23.382 13.402C23.384 11.989 23.308 11.602 22.848 10.667C22.6742 10.3065 22.454 9.97033 22.193 9.667C22.418 9.009 22.4 7.987 22.173 7.093C21.983 6.359 21.915 6.313 21.249 6.453C20.6927 6.57064 20.1553 6.76447 19.652 7.029C19.378 7.167 19 7.383 18.729 7.551C18.014 7.301 17.279 7.131 16.487 7.043C15.687 6.951 13.727 7.003 13.033 7.133C12.353 7.258 11.74 7.413 11.185 7.593C10.909 7.423 10.507 7.193 10.221 7.047C9.7182 6.78199 9.18059 6.5891 8.624 6.474C7.96 6.33 7.892 6.379 7.702 7.114C7.467 8.021 7.465 9.059 7.698 9.717C7.723 9.792 7.74 9.847 7.748 9.887C6.805 11.074 6.498 12.402 6.701 14.254C6.754 14.736 6.837 15.18 6.951 15.587C6.351 15.583 5.495 15.605 4.878 15.644C4.424 15.674 3.921 15.72 3.46 15.774C3.22274 13.9765 3.40309 12.1485 3.98704 10.4321C4.57098 8.7156 5.54281 7.15688 6.827 5.877C7.92465 4.77579 9.22925 3.90255 10.6657 3.30754C12.1022 2.71252 13.6422 2.40749 15.197 2.41C18.47 2.41 21.423 3.733 23.567 5.877C24.8481 7.1539 25.8184 8.70836 26.4027 10.4202C26.9871 12.132 27.1699 13.9553 26.937 15.749C26.477 15.693 25.973 15.646 25.52 15.617V15.618Z" fill="#563D7C"/>
</svg>
