<svg width="68" height="68" viewBox="0 0 68 68" fill="none" xmlns="http://www.w3.org/2000/svg">
<g filter="url(#filter0_d_202_8)">
<path fill-rule="evenodd" clip-rule="evenodd" d="M35 60C50.464 60 63 47.464 63 32C63 29.0234 62.5355 26.1554 61.6751 23.4643C61.6101 23.5179 61.5374 23.5714 61.457 23.625L61.1055 24.082H60.7188C60.4844 24.082 60.3086 24.1055 60.1914 24.1523C60.0742 24.1758 59.9336 24.2227 59.7695 24.293C59.6758 24.3398 59.5703 24.3867 59.4531 24.4336C59.3359 24.457 59.207 24.4922 59.0664 24.5391C58.8086 24.5156 58.6094 24.5039 58.4688 24.5039H57.9766C57.2734 24.5039 56.5117 24.5508 55.6914 24.6445C54.8711 24.7383 54.0742 24.8438 53.3008 24.9609C52.7383 25.0312 52.1992 25.1016 51.6836 25.1719C51.168 25.2188 50.6992 25.2656 50.2773 25.3125C50.043 25.9219 49.832 26.4609 49.6445 26.9297C49.457 27.3984 49.2578 27.8672 49.0469 28.3359C48.8359 28.8047 48.6367 29.2852 48.4492 29.7773C48.2617 30.2461 48.0859 30.7734 47.9219 31.3594C47.6406 31.7812 47.4062 32.1914 47.2188 32.5898C47.0312 32.9648 46.8789 33.3984 46.7617 33.8906C46.4102 34.2891 46.1523 34.7227 45.9883 35.1914C45.8477 35.6602 45.7188 36.0586 45.6016 36.3867L45.4609 36.9141C45.2969 37.0781 45.1914 37.207 45.1445 37.3008C45.1211 37.3945 45.0625 37.5 44.9688 37.6172C44.8984 37.9219 44.8047 38.2148 44.6875 38.4961C44.6406 38.6133 44.5938 38.7422 44.5469 38.8828C44.5 39 44.4883 39.0938 44.5117 39.1641C44.4648 39.4219 44.3945 39.6211 44.3008 39.7617C44.3008 39.9023 44.2891 40.043 44.2656 40.1836L44.1953 40.6055C44.1484 40.7695 44.1133 40.9219 44.0898 41.0625C44.0664 41.1797 44.0781 41.2969 44.125 41.4141L44.3359 41.6953C44.4062 41.7891 44.4648 41.9062 44.5117 42.0469C44.5586 42.0938 44.6172 42.1289 44.6875 42.1523C44.7578 42.1758 44.8164 42.2109 44.8633 42.2578C45.0508 42.4219 45.2266 42.5156 45.3906 42.5391L45.7422 42.9609C45.8828 43.8047 45.7539 44.4609 45.3555 44.9297C44.9336 45.4688 44.2305 45.7383 43.2461 45.7383L42.7539 45.7031C42.5898 45.5391 42.4961 45.4336 42.4727 45.3867C42.2617 45.293 42.0859 45.2109 41.9453 45.1406C41.8047 45.0938 41.6758 44.9883 41.5586 44.8242C41.5117 44.7773 41.4531 44.7539 41.3828 44.7539C41.3125 44.7305 41.2539 44.6953 41.207 44.6484C40.9727 44.5781 40.7852 44.4961 40.6445 44.4023L40.2578 44.1914C40.2812 43.957 40.293 43.793 40.293 43.6992C40.1055 43.4414 39.9531 43.1602 39.8359 42.8555C39.7422 42.5508 39.6602 42.2344 39.5898 41.9062C39.5195 41.6484 39.4492 41.4141 39.3789 41.2031C39.332 40.9922 39.25 40.8047 39.1328 40.6406C39.0859 39 39.2383 37.6289 39.5898 36.5273C39.9414 35.4023 40.3281 34.3125 40.75 33.2578C40.9844 32.6953 41.207 32.1211 41.418 31.5352C41.6289 30.9492 41.8164 30.3516 41.9805 29.7422L42.3672 29.3555C42.5312 29.2148 42.6367 29.1328 42.6836 29.1094C42.6836 28.8047 42.7422 28.5117 42.8594 28.2305C42.9766 27.9258 43.1055 27.6211 43.2461 27.3164C43.3398 27.1289 43.4219 26.9414 43.4922 26.7539C43.5859 26.5664 43.6445 26.4023 43.668 26.2617C43.5039 26.2617 43.3516 26.2734 43.2109 26.2969C43.0938 26.2969 42.9648 26.3086 42.8242 26.332C42.5195 26.4023 42.2266 26.4375 41.9453 26.4375C41.7344 26.4375 41.582 26.4258 41.4883 26.4023C41.3008 26.4961 41.125 26.5547 40.9609 26.5781H40.4688H40.0469H39.625C39.3438 26.5781 39.1211 26.6133 38.957 26.6836H38.3242H38.0078H37.5859H37.1641C36.9766 26.6836 36.7656 26.6719 36.5312 26.6484C36.2969 26.6016 36.0508 26.5078 35.793 26.3672L35.5469 26.0859C35.4062 25.8281 35.2773 25.6875 35.1602 25.6641L34.7734 25.5586V25.1719C34.75 24.9844 34.7031 24.8203 34.6328 24.6797C34.5859 24.5156 34.5273 24.3398 34.457 24.1523C34.3398 23.8711 34.2344 23.5664 34.1406 23.2383C34.0469 22.9102 34 22.5234 34 22.0781C34.0469 21.8438 34.1055 21.6797 34.1758 21.5859C34.2461 21.4688 34.3164 21.375 34.3867 21.3047L34.5273 20.6719H35.0547C35.2422 20.6953 35.4297 20.707 35.6172 20.707H36.2148C37.1055 20.707 38.0195 20.6719 38.957 20.6016C39.8945 20.5312 40.8555 20.4492 41.8398 20.3555C42.918 20.2148 44.0781 20.1094 45.3203 20.0391C45.4375 19.7812 45.5078 19.6172 45.5312 19.5469C45.5781 19.4766 45.625 19.3945 45.6719 19.3008L46.0586 19.0898C46.5977 19.0664 46.9727 19.1367 47.1836 19.3008C47.3945 19.4414 47.5586 19.582 47.6758 19.7227C48.2852 19.6758 48.9062 19.6172 49.5391 19.5469C50.1719 19.4531 50.8281 19.3594 51.5078 19.2656C52.4453 19.1484 53.3945 19.0312 54.3555 18.9141C55.3164 18.7969 56.2539 18.7383 57.168 18.7383C57.5664 18.7383 57.9414 18.75 58.293 18.7734C58.6445 18.7969 58.9844 18.832 59.3125 18.8789L59.7344 19.1953C59.8281 19.3594 59.9453 19.5117 60.0859 19.6523C60.1173 19.6837 60.1497 19.715 60.1834 19.7463C55.6386 10.4235 46.0695 4 35 4C19.536 4 7 16.536 7 32C7 47.464 19.536 60 35 60ZM35 62C51.5685 62 65 48.5685 65 32C65 15.4315 51.5685 2 35 2C18.4315 2 5 15.4315 5 32C5 48.5685 18.4315 62 35 62ZM9.08594 41.6602L9.54297 41.3086L9.57812 40.5703C10.1641 39.1406 10.7617 37.7695 11.3711 36.457C12.0039 35.1445 12.6602 33.7969 13.3398 32.4141L13.9727 31.0781C14.207 30.6328 14.4297 30.1758 14.6406 29.707C14.6172 29.6133 14.6055 29.5195 14.6055 29.4258C14.6055 29.3086 14.6289 29.1797 14.6758 29.0391C15.0039 28.5703 15.2617 28.1484 15.4492 27.7734C15.6602 27.3984 15.8594 27.0117 16.0469 26.6133C16.2578 26.1445 16.4805 25.6758 16.7148 25.207C16.9727 24.7383 17.2891 24.2812 17.6641 23.8359L17.9102 23.4844L18.2969 23.5195C18.3906 23.4727 18.4844 23.4375 18.5781 23.4141C18.6953 23.3672 18.8359 23.3438 19 23.3438L19.6328 23.4492C20.4062 23.0977 21.0859 22.5938 21.6719 21.9375C22.2812 21.2578 22.8906 20.4492 23.5 19.5117L23.9219 18.9141L24.4844 19.2656C24.6016 19.3359 24.7891 19.4062 25.0469 19.4766C25.3047 19.5469 25.5742 19.6289 25.8555 19.7227C26.3477 19.8398 26.8281 19.9805 27.2969 20.1445C27.7656 20.2852 28.1289 20.4844 28.3867 20.7422L28.5625 21.0586C28.6094 21.3164 28.6445 21.5508 28.668 21.7617L28.8086 22.3945C28.9023 22.8867 28.9844 23.3789 29.0547 23.8711C29.125 24.3398 29.1719 24.8672 29.1953 25.4531C29.3125 25.9219 29.418 26.4023 29.5117 26.8945C29.6289 27.3633 29.7344 27.832 29.8281 28.3008C29.9453 28.9805 30.0742 29.6367 30.2148 30.2695C30.3555 30.8789 30.543 31.4648 30.7773 32.0273C31.0117 32.0273 31.1523 32.0391 31.1992 32.0625C31.4805 31.9453 31.8086 31.875 32.1836 31.8516L32.6406 31.8164L32.7812 32.2383C32.8281 32.3086 32.8867 32.3789 32.957 32.4492C33.0273 32.5195 33.1094 32.5898 33.2031 32.6602C33.5781 32.6836 33.8477 32.7656 34.0117 32.9062C34.1992 33.0234 34.3516 33.1406 34.4688 33.2578L34.6445 33.4336C34.7148 33.4805 34.7734 33.5156 34.8203 33.5391L35.4531 33.7852L35.1016 34.4531C34.8438 34.9453 34.4453 35.4258 33.9062 35.8945C33.3906 36.3633 32.8047 36.75 32.1484 37.0547C32.1953 37.2188 32.2188 37.3711 32.2188 37.5117C32.2422 37.6523 32.2773 37.8164 32.3242 38.0039C32.418 38.4727 32.4883 38.9648 32.5352 39.4805C32.6055 39.9727 32.6055 40.4883 32.5352 41.0273C32.3008 41.6367 32.0195 42.1875 31.6914 42.6797C31.3867 43.1484 31.0117 43.582 30.5664 43.9805C30.1445 44.3555 29.6641 44.6719 29.125 44.9297C28.5859 45.1641 28.0234 45.293 27.4375 45.3164C27.1094 45.2461 26.8633 45.1641 26.6992 45.0703C26.5586 44.9766 26.4297 44.8828 26.3125 44.7891C26.125 44.6484 25.9727 44.5547 25.8555 44.5078L25.3984 44.2969L25.5391 43.7695C25.6094 43.582 25.5977 43.418 25.5039 43.2773C25.4336 43.1367 25.2695 42.9492 25.0117 42.7148C24.918 42.6445 24.8359 42.5742 24.7656 42.5039C24.6953 42.4102 24.6133 42.3164 24.5195 42.2227L23.8164 41.4141L24.9766 41.0977C25.6797 40.9102 26.1484 40.6758 26.3828 40.3945C26.6172 40.0898 26.7109 39.5625 26.6641 38.8125C26.0781 38.6953 25.5977 38.6836 25.2227 38.7773C24.8477 38.8477 24.4727 38.9297 24.0977 39.0234C23.5586 39.1641 23.0312 39.293 22.5156 39.4102C22 39.5039 21.4375 39.5508 20.8281 39.5508C20.4297 39.5508 20.0078 39.5156 19.5625 39.4453L19.1758 39.4102L19.0703 39.0234C19.0703 38.9766 19.0352 38.9297 18.9648 38.8828C18.918 38.8125 18.8711 38.7539 18.8242 38.707C18.707 38.5664 18.5664 38.3789 18.4023 38.1445C18.2383 37.9102 18.2031 37.6172 18.2969 37.2656C18.1328 37.0078 18.0391 36.7383 18.0156 36.457C17.9219 36.6445 17.8398 36.832 17.7695 37.0195L17.6289 37.5117L17.4883 37.9688L17.0312 38.0391C16.9844 38.0859 16.9375 38.1562 16.8906 38.25C16.8672 38.3438 16.8672 38.4141 16.8906 38.4609L17.0312 38.8477L16.6797 39.1641C16.6328 39.2344 16.5742 39.293 16.5039 39.3398C16.4336 39.3867 16.375 39.4336 16.3281 39.4805C16.2812 39.7383 16.2109 39.9844 16.1172 40.2188C16.0469 40.4531 15.9648 40.6875 15.8711 40.9219C15.7539 41.2969 15.6367 41.6602 15.5195 42.0117C15.4258 42.3633 15.3789 42.7148 15.3789 43.0664L15.2383 43.5234C15.1211 43.7109 14.9688 43.8516 14.7812 43.9453C14.6172 44.0391 14.4531 44.1211 14.2891 44.1914C14.0547 44.2852 13.8906 44.3789 13.7969 44.4727L13.6914 44.9297L13.1641 45C12.8594 45.0703 12.6367 45.1172 12.4961 45.1406C12.3789 45.1641 12.2383 45.1758 12.0742 45.1758L11.6172 45.1406C11.3359 44.8594 11.1016 44.6484 10.9141 44.5078C10.75 44.3438 10.5508 44.2031 10.3164 44.0859L10.1055 43.8047C10.0117 43.6172 9.95312 43.4531 9.92969 43.3125C9.90625 43.1484 9.87109 42.9844 9.82422 42.8203C9.77734 42.5156 9.70703 42.3047 9.61328 42.1875L9.08594 41.6602ZM20.3008 32.5195C19.9727 32.9883 19.6562 33.4805 19.3516 33.9961C19.5156 33.9727 19.668 33.9609 19.8086 33.9609C19.9727 33.9609 20.1367 33.9492 20.3008 33.9258C21.1211 33.8789 21.8828 33.8203 22.5859 33.75C23.2891 33.6797 24.0508 33.5625 24.8711 33.3984C24.6836 32.5312 24.4727 31.6523 24.2383 30.7617C24.0273 29.8477 23.793 28.9336 23.5352 28.0195L23.3594 28.3711C22.7734 29.0039 22.2109 29.6836 21.6719 30.4102C21.1328 31.1367 20.6875 31.8281 20.3359 32.4844L20.3008 32.5195Z" fill="#DCD4D4"/>
</g>
<defs>
<filter id="filter0_d_202_8" x="0" y="0" width="68" height="68" filterUnits="userSpaceOnUse" color-interpolation-filters="sRGB">
<feFlood flood-opacity="0" result="BackgroundImageFix"/>
<feColorMatrix in="SourceAlpha" type="matrix" values="0 0 0 0 0 0 0 0 0 0 0 0 0 0 0 0 0 0 127 0" result="hardAlpha"/>
<feOffset dx="-1" dy="2"/>
<feGaussianBlur stdDeviation="2"/>
<feColorMatrix type="matrix" values="0 0 0 0 0 0 0 0 0 0 0 0 0 0 0 0 0 0 1 0"/>
<feBlend mode="normal" in2="BackgroundImageFix" result="effect1_dropShadow_202_8"/>
<feBlend mode="normal" in="SourceGraphic" in2="effect1_dropShadow_202_8" result="shape"/>
</filter>
</defs>
</svg>
