<svg width="33" height="32" viewBox="0 0 33 32" fill="none" xmlns="http://www.w3.org/2000/svg">
<path d="M4.11499 3.517H29.781V28.483H4.11499V3.517Z" fill="#0C0824"/>
<path d="M4.115 3.51701H29.781V28.483H4.115V3.51701ZM2.948 29.65H30.948V2.35001H2.948V29.65ZM21.825 13.55C20.903 13.55 20.588 14.017 20.588 14.402C20.588 14.822 20.798 15.114 22.035 15.755C23.867 16.642 24.435 17.493 24.435 18.742C24.435 20.609 23.012 21.612 21.087 21.612C20.2608 21.6426 19.4397 21.471 18.695 21.112C18.613 21.077 18.602 21.019 18.602 20.925V19.208C18.602 19.091 18.66 19.056 18.742 19.115C19.4414 19.5647 20.2555 19.8036 21.087 19.803C22.009 19.803 22.394 19.418 22.394 18.893C22.394 18.473 22.126 18.1 20.947 17.493C19.29 16.7 18.602 15.893 18.602 14.553C18.602 13.048 19.78 11.8 21.822 11.8C22.5328 11.7695 23.2426 11.8806 23.91 12.127C23.9484 12.152 23.9795 12.1867 24.0001 12.2276C24.0207 12.2686 24.0299 12.3143 24.027 12.36V13.96C24.027 14.053 23.969 14.112 23.852 14.077C23.2352 13.7219 22.5337 13.5405 21.822 13.552L21.825 13.55ZM11.791 14.938C12.059 14.961 12.269 14.961 12.736 14.961C14.101 14.961 15.384 14.483 15.384 12.628C15.384 11.146 14.462 10.4 12.911 10.4C12.444 10.4 12.001 10.423 11.791 10.435V14.938ZM9.714 8.73801C9.714 8.65601 9.877 8.59801 9.971 8.59801C10.9738 8.55703 11.9774 8.53769 12.981 8.54001C16.213 8.54001 17.473 10.313 17.473 12.577C17.473 15.54 15.326 16.812 12.69 16.812C12.247 16.812 12.095 16.789 11.78 16.789V21.269C11.78 21.362 11.745 21.409 11.64 21.409H9.855C9.762 21.409 9.715 21.374 9.715 21.269V8.74301L9.714 8.73801Z" fill="#31C5F0"/>
</svg>
