<svg width="32" height="32" viewBox="0 0 32 32" fill="none" xmlns="http://www.w3.org/2000/svg">
<path d="M14.135 4H18.1V22.169C16.4075 22.5164 14.6847 22.6956 12.957 22.704C8.11497 22.699 5.59497 20.536 5.59497 16.382C5.59497 12.382 8.26797 9.782 12.411 9.782C12.992 9.77067 13.5719 9.83795 14.135 9.982V4V4ZM14.135 13.142C13.7039 12.9998 13.2518 12.9322 12.798 12.942C10.798 12.942 9.63497 14.165 9.63497 16.308C9.63497 18.395 10.742 19.547 12.773 19.547C13.2288 19.5469 13.684 19.5135 14.135 19.447V13.147V13.142Z" fill="#44B78B"/>
<path d="M24.4 10.059V19.159C24.4 22.292 24.165 23.798 23.477 25.097C22.7748 26.4178 21.6266 27.4466 20.237 28L16.559 26.267C17.8952 25.8095 19.0143 24.8728 19.7 23.638C20.266 22.517 20.445 21.218 20.445 17.801V10.059H24.4Z" fill="#44B78B"/>
<path d="M20.441 4.02002H24.405V8.04802H20.441V4.02002Z" fill="#44B78B"/>
</svg>
