<svg width="110" height="68" viewBox="0 0 110 68" fill="none" xmlns="http://www.w3.org/2000/svg">
<path d="M54.4213 67.094C54.0499 67.094 53.7032 66.995 53.3811 66.8216L50.0872 64.8651C49.5917 64.5925 49.8395 64.4935 49.9882 64.444C50.6568 64.2212 50.7806 64.1715 51.4741 63.7754C51.5484 63.7257 51.6477 63.7506 51.7218 63.8001L54.2481 65.3109C54.3471 65.3604 54.471 65.3604 54.5451 65.3109L64.4273 59.5897C64.5263 59.5402 64.576 59.4409 64.576 59.3173V47.8997C64.576 47.7757 64.5263 47.6769 64.4273 47.6272L54.5451 41.9308C54.4461 41.8811 54.3223 41.8811 54.2481 41.9308L44.366 47.6272C44.267 47.6767 44.2173 47.8005 44.2173 47.8995V59.3171C44.2173 59.4163 44.267 59.5399 44.366 59.5897L47.0656 61.1499C48.5269 61.8929 49.4432 61.0261 49.4432 60.1592V48.8902C49.4432 48.7417 49.5671 48.593 49.7405 48.593H51.0035C51.1522 48.593 51.3007 48.7168 51.3007 48.8902V60.1592C51.3007 62.1157 50.2357 63.2551 48.3782 63.2551C47.8086 63.2551 47.3629 63.2551 46.0996 62.6358L43.4992 61.1499C42.8552 60.7786 42.459 60.0849 42.459 59.3419V47.9244C42.459 47.1814 42.8552 46.4878 43.4992 46.1164L53.3811 40.3952C54.0004 40.0485 54.8426 40.0485 55.4617 40.3952L65.3436 46.1164C65.9875 46.4878 66.384 47.1814 66.384 47.9244V59.3419C66.384 60.0849 65.9875 60.7786 65.3436 61.1499L55.4617 66.8711C55.1396 67.0198 54.7682 67.094 54.4215 67.094H54.4213ZM57.4677 59.2429C53.1336 59.2429 52.2419 57.2616 52.2419 55.5774C52.2419 55.4287 52.3658 55.2802 52.5391 55.2802H53.827C53.9755 55.2802 54.0994 55.3792 54.0994 55.5279C54.2976 56.8405 54.8672 57.4844 57.4925 57.4844C59.5729 57.4844 60.4648 57.0139 60.4648 55.8993C60.4648 55.2554 60.2168 54.785 56.9724 54.4629C54.2728 54.1903 52.5886 53.5961 52.5886 51.4414C52.5886 49.4352 54.273 48.2463 57.0963 48.2463C60.2663 48.2463 61.8268 49.3362 62.025 51.7135C62.025 51.7881 62.0002 51.8622 61.9507 51.9366C61.901 51.9861 61.8268 52.0356 61.7525 52.0356H60.4646C60.3407 52.0356 60.2168 51.9366 60.1922 51.8127C59.895 50.4507 59.1271 50.0047 57.0963 50.0047C54.8177 50.0047 54.5451 50.7974 54.5451 51.3917C54.5451 52.11 54.8672 52.3328 57.9382 52.7291C60.9846 53.1255 62.4213 53.6951 62.4213 55.8249C62.3964 58.0045 60.6133 59.2429 57.4677 59.2429Z" fill="#539E43"/>
<path d="M23.7597 22.4391C23.7597 21.9934 23.512 21.5721 23.1158 21.3492L12.6145 15.3062C12.441 15.2069 12.243 15.1574 12.0449 15.1326H11.9457C11.7477 15.1326 11.5495 15.2069 11.3761 15.3062L0.874908 21.3492C0.478466 21.5721 0.230957 21.9932 0.230957 22.4391L0.255815 38.6862C0.255815 38.9091 0.379677 39.1319 0.577684 39.2312C0.775905 39.355 1.02341 39.355 1.19699 39.2312L7.43828 35.6647C7.83451 35.4418 8.08223 35.0207 8.08223 34.575V26.9714C8.08223 26.5257 8.32974 26.1046 8.72619 25.8818L11.3761 24.3461C11.5744 24.2223 11.7972 24.1726 12.0201 24.1726C12.243 24.1726 12.4658 24.2223 12.6394 24.3461L15.2893 25.8818C15.6858 26.1046 15.9333 26.5255 15.9333 26.9714V34.575C15.9333 35.0207 16.181 35.4418 16.5772 35.6647L22.8185 39.2312C23.0168 39.355 23.2643 39.355 23.4625 39.2312C23.6607 39.1319 23.7846 38.9091 23.7846 38.6862L23.7597 22.4391Z" fill="#333333"/>
<path d="M74.235 0.0744133C74.0369 -0.0248045 73.7892 -0.0248045 73.6156 0.0744133C73.4176 0.198275 73.2938 0.396282 73.2938 0.619147V16.7179C73.2938 16.8664 73.2196 17.0149 73.0709 17.1142C72.9224 17.1883 72.7737 17.1883 72.6252 17.1142L69.9999 15.6034C69.8074 15.4938 69.5897 15.4362 69.3682 15.4362C69.1468 15.4362 68.9291 15.4938 68.7366 15.6034L58.2354 21.6713C57.8392 21.8942 57.5914 22.3153 57.5914 22.761V34.872C57.5914 35.3177 57.8392 35.739 58.2354 35.9619L68.7366 42.0298C68.9291 42.1394 69.1468 42.197 69.3682 42.197C69.5897 42.197 69.8074 42.1394 69.9999 42.0298L80.5011 35.9619C80.8973 35.739 81.145 35.3179 81.145 34.872V4.68108C81.145 4.21049 80.8973 3.78962 80.5011 3.56654L74.2352 0.0744133H74.235ZM73.2691 30.8846C73.2691 31.0085 73.2196 31.1075 73.1204 31.157L69.5293 33.2374C69.4791 33.2618 69.4241 33.2746 69.3682 33.2746C69.3124 33.2746 69.2574 33.2618 69.2072 33.2374L65.6161 31.157C65.5169 31.1075 65.4674 30.9836 65.4674 30.8846V26.7237C65.4674 26.5999 65.5169 26.5008 65.6161 26.4513L69.2072 24.3708C69.2574 24.3463 69.3124 24.3336 69.3682 24.3336C69.4241 24.3336 69.4791 24.3463 69.5293 24.3708L73.1204 26.4513C73.2196 26.5006 73.2691 26.6247 73.2691 26.7237V30.8846Z" fill="#333333"/>
<path d="M109.181 26.6247C109.578 26.4018 109.801 25.9808 109.801 25.5348V22.5876C109.801 22.1419 109.553 21.7208 109.181 21.498L98.7544 15.4549C98.562 15.3453 98.3443 15.2877 98.1229 15.2877C97.9015 15.2877 97.6838 15.3453 97.4914 15.4549L86.9901 21.5226C86.5937 21.7455 86.3462 22.1666 86.3462 22.6125V34.7235C86.3462 35.1692 86.5937 35.5903 86.9901 35.8132L97.417 41.7572C97.8135 41.9801 98.2838 41.9801 98.6554 41.7572L104.971 38.2407C105.169 38.1415 105.293 37.9186 105.293 37.6957C105.293 37.4729 105.169 37.25 104.971 37.1508L94.4201 31.0829C94.2221 30.9592 94.0982 30.761 94.0982 30.5381V26.7488C94.0982 26.5259 94.2221 26.3031 94.4201 26.2038L97.7142 24.3215C97.8107 24.2608 97.9223 24.2286 98.0362 24.2286C98.1501 24.2286 98.2618 24.2608 98.3582 24.3215L101.652 26.2038C101.85 26.3277 101.974 26.5257 101.974 26.7488V29.7208C101.974 29.9437 102.098 30.1665 102.296 30.2656C102.494 30.3894 102.742 30.3894 102.94 30.2656L109.181 26.6247V26.6247Z" fill="#333333"/>
<path d="M97.962 26.0551C97.9987 26.0309 98.0418 26.018 98.0857 26.018C98.1297 26.018 98.1728 26.0309 98.2095 26.0551L100.216 27.2192C100.29 27.2684 100.34 27.3428 100.34 27.442V29.7701C100.34 29.8691 100.29 29.9435 100.216 29.993L98.2095 31.157C98.1728 31.1812 98.1297 31.1941 98.0857 31.1941C98.0418 31.1941 97.9987 31.1812 97.962 31.157L95.9558 29.993C95.8814 29.9435 95.8319 29.8691 95.8319 29.7701V27.442C95.8319 27.3428 95.8814 27.2684 95.9558 27.2192L97.962 26.0551V26.0551Z" fill="#539E43"/>
<mask id="mask0" mask-type="alpha" maskUnits="userSpaceOnUse" x="29" y="15" width="24" height="27">
<path d="M41.3196 15.5044C41.1272 15.3948 40.9095 15.3372 40.6881 15.3372C40.4666 15.3372 40.249 15.3948 40.0566 15.5044L29.6297 21.5224C29.2332 21.7453 29.0104 22.1663 29.0104 22.6121V34.6738C29.0104 35.1195 29.2581 35.5406 29.6297 35.7635L40.0566 41.7819C40.249 41.8914 40.4666 41.949 40.6881 41.949C40.9095 41.949 41.1272 41.8914 41.3196 41.7819L51.7467 35.7635C52.1429 35.5406 52.366 35.1195 52.366 34.6738V22.6123C52.366 22.1666 52.1181 21.7455 51.7467 21.5226L41.3196 15.5044Z" fill="white"/>
</mask>
<g mask="url(#mask0)">
<path d="M41.3196 15.5044C41.1272 15.3948 40.9095 15.3372 40.6881 15.3372C40.4666 15.3372 40.249 15.3948 40.0566 15.5044L29.6297 21.5224C29.2332 21.7453 29.0104 22.1663 29.0104 22.6121V34.6738C29.0104 35.1195 29.2581 35.5406 29.6297 35.7635L40.0566 41.7819C40.249 41.8914 40.4666 41.949 40.6881 41.949C40.9095 41.949 41.1272 41.8914 41.3196 41.7819L51.7467 35.7635C52.1429 35.5406 52.366 35.1195 52.366 34.6738V22.6123C52.366 22.1666 52.1181 21.7455 51.7467 21.5226L41.3196 15.5044Z" fill="url(#paint0_linear)"/>
<path d="M51.7712 21.5226L41.2949 15.5044C41.1919 15.4524 41.084 15.4109 40.9728 15.3805L29.2332 35.4915C29.3304 35.6103 29.4479 35.7109 29.5801 35.7888L40.0565 41.8072C40.3537 41.9805 40.7004 42.03 41.0223 41.9308L52.0438 21.7705C51.9695 21.6715 51.8702 21.597 51.7712 21.5228V21.5226Z" fill="url(#paint1_linear)"/>
<path fill-rule="evenodd" clip-rule="evenodd" d="M51.7961 35.7637C52.0933 35.5903 52.3162 35.2931 52.4154 34.9712L40.9231 15.3557C40.6259 15.3062 40.3038 15.3308 40.0316 15.5042L29.6294 21.498L40.8487 41.9555C41.0119 41.9287 41.1704 41.8787 41.3193 41.807L51.7959 35.7639L51.7961 35.7637Z" fill="url(#paint2_linear)"/>
<path fill-rule="evenodd" clip-rule="evenodd" d="M51.7961 35.7637L41.3444 41.7821C41.1968 41.8573 41.0378 41.9075 40.8738 41.9306L41.072 42.3022L52.6629 35.5905V35.4418L52.3657 34.9464C52.3162 35.2931 52.0933 35.5903 51.7961 35.7637V35.7637Z" fill="url(#paint3_linear)"/>
<path fill-rule="evenodd" clip-rule="evenodd" d="M51.7961 35.7637L41.3444 41.7821C41.1968 41.8573 41.0378 41.9075 40.8738 41.9306L41.072 42.3022L52.6629 35.5905V35.4418L52.3657 34.9464C52.3162 35.2931 52.0933 35.5903 51.7961 35.7637V35.7637Z" fill="url(#paint4_linear)"/>
</g>
<defs>
<linearGradient id="paint0_linear" x1="44.9361" y1="19.9908" x2="33.5072" y2="37.949" gradientUnits="userSpaceOnUse">
<stop stop-color="#41873F"/>
<stop offset="0.3288" stop-color="#418B3D"/>
<stop offset="0.6352" stop-color="#419637"/>
<stop offset="0.9319" stop-color="#3FA92D"/>
<stop offset="1" stop-color="#3FAE2A"/>
</linearGradient>
<linearGradient id="paint1_linear" x1="39.1049" y1="30.056" x2="67.728" y2="14.505" gradientUnits="userSpaceOnUse">
<stop offset="0.1376" stop-color="#41873F"/>
<stop offset="0.4032" stop-color="#54A044"/>
<stop offset="0.7136" stop-color="#66B848"/>
<stop offset="0.9081" stop-color="#6CC04A"/>
</linearGradient>
<linearGradient id="paint2_linear" x1="28.6293" y1="28.6435" x2="52.757" y2="28.6435" gradientUnits="userSpaceOnUse">
<stop offset="0.09192" stop-color="#6CC04A"/>
<stop offset="0.2864" stop-color="#66B848"/>
<stop offset="0.5968" stop-color="#54A044"/>
<stop offset="0.8624" stop-color="#41873F"/>
</linearGradient>
<linearGradient id="paint3_linear" x1="28.6295" y1="38.6445" x2="52.7569" y2="38.6445" gradientUnits="userSpaceOnUse">
<stop offset="0.09192" stop-color="#6CC04A"/>
<stop offset="0.2864" stop-color="#66B848"/>
<stop offset="0.5968" stop-color="#54A044"/>
<stop offset="0.8624" stop-color="#41873F"/>
</linearGradient>
<linearGradient id="paint4_linear" x1="56.2719" y1="19.4205" x2="50.1595" y2="51.4493" gradientUnits="userSpaceOnUse">
<stop stop-color="#41873F"/>
<stop offset="0.3288" stop-color="#418B3D"/>
<stop offset="0.6352" stop-color="#419637"/>
<stop offset="0.9319" stop-color="#3FA92D"/>
<stop offset="1" stop-color="#3FAE2A"/>
</linearGradient>
</defs>
</svg>
