<svg width="35" height="36" viewBox="0 0 35 36" fill="none" xmlns="http://www.w3.org/2000/svg">
<g clip-path="url(#clip0)">
<path d="M34.8644 21.5572C34.6545 20.9232 34.1048 20.4817 33.3938 20.3757C33.0586 20.3258 32.6747 20.3471 32.2204 20.4405C31.4285 20.6035 30.841 20.6655 30.4123 20.6775C32.0306 17.9523 33.3465 14.8446 34.1041 11.9191C35.3291 7.18883 34.6745 5.03388 33.9095 4.05915C31.8851 1.47915 28.9316 0.093149 25.3684 0.0507399C23.4676 0.0275581 21.799 0.401876 20.9285 0.671058C20.118 0.528422 19.2466 0.448785 18.3322 0.434058C16.6182 0.406785 15.1037 0.779467 13.8097 1.54542C13.0933 1.30379 11.9435 0.963149 10.6157 0.745785C7.49275 0.234422 4.97575 0.632876 3.1347 1.9301C0.905361 3.50074 -0.128096 6.22965 0.063037 10.041C0.12374 11.2511 0.802412 14.9329 1.87101 18.4246C2.48515 20.4316 3.14003 22.0983 3.81747 23.3787C4.77819 25.1944 5.80618 26.2636 6.96023 26.6476C7.60704 26.8626 8.78228 27.0131 10.0184 25.9863C10.175 26.1756 10.3841 26.3636 10.6615 26.5383C11.0138 26.7599 11.4446 26.941 11.8749 27.0483C13.4254 27.4349 14.8777 27.3382 16.1168 26.7963C16.1245 27.0161 16.1304 27.2261 16.1353 27.4075C16.1435 27.7016 16.1517 27.99 16.1625 28.2597C16.2359 30.0835 16.3603 31.5015 16.7289 32.4937C16.7492 32.5482 16.7764 32.6314 16.8051 32.7196C16.989 33.2812 17.2964 34.2213 18.0787 34.9575C18.8888 35.7202 19.8687 35.9541 20.7661 35.9541C21.2162 35.9541 21.6456 35.8951 22.0223 35.8147C23.3648 35.5276 24.8897 35.0905 25.9927 33.5239C27.0356 32.043 27.5426 29.8125 27.6343 26.298C27.6462 26.1986 27.6571 26.1037 27.6676 26.0133L27.6895 25.8276L27.9352 25.8491L27.9985 25.8533C29.366 25.9155 31.038 25.6263 32.0649 25.1505C32.8764 24.775 35.4766 23.4057 34.8644 21.5572" fill="black"/>
<path d="M32.5263 21.9167C28.4602 22.7532 28.1806 21.3802 28.1806 21.3802C32.4736 15.0266 34.2683 6.96165 32.7197 4.98779C28.4946 -0.396533 21.1808 2.14992 21.0587 2.21592L21.0195 2.22301C20.2161 2.05665 19.3172 1.95765 18.3067 1.94115C16.467 1.91115 15.0714 2.42224 14.0123 3.22324C14.0123 3.22324 0.965276 -2.13776 1.57217 9.9656C1.70123 12.5404 5.27233 29.4483 9.53166 24.3413C11.0885 22.4738 12.5928 20.8949 12.5928 20.8949C13.3398 21.3899 14.2342 21.6424 15.1719 21.5517L15.2447 21.4901C15.222 21.7219 15.2324 21.9487 15.2738 22.2172C14.1765 23.44 14.4991 23.6546 12.3055 24.105C10.0859 24.5613 11.3898 25.3735 12.2412 25.5859C13.2732 25.8432 15.6609 26.2079 17.2742 23.9553L17.2099 24.2123C17.6398 24.5558 17.9416 26.4464 17.8911 28.1603C17.8405 29.8742 17.8067 31.0508 18.1454 31.9699C18.4843 32.889 18.8218 34.957 21.7055 34.3407C24.1149 33.8257 25.3636 32.4911 25.5373 30.2648C25.6605 28.6822 25.9396 28.9162 25.9571 27.5012L26.1809 26.8313C26.4388 24.6859 26.2219 23.9937 27.7062 24.3157L28.0672 24.3473C29.1596 24.3968 30.5896 24.172 31.4289 23.7829C33.2361 22.9465 34.308 21.5497 32.526 21.9167H32.5263" fill="#336791"/>
<path d="M14.776 11.117C14.4096 11.0662 14.0778 11.1132 13.9099 11.24C13.8155 11.3114 13.7863 11.394 13.7784 11.4509C13.7573 11.6015 13.8631 11.7682 13.9282 11.8541C14.1122 12.0974 14.381 12.2645 14.6471 12.3014C14.6856 12.3068 14.724 12.3093 14.7622 12.3093C15.2058 12.3093 15.6093 11.9647 15.6448 11.7104C15.6893 11.3918 15.2257 11.1795 14.776 11.1172" fill="white"/>
<path d="M26.9144 11.1271C26.8794 10.8775 26.434 10.8063 26.0113 10.8649C25.5891 10.9236 25.1797 11.1136 25.2139 11.3639C25.2413 11.5585 25.5936 11.8906 26.0106 11.8906C26.0458 11.8906 26.0814 11.8883 26.1172 11.8833C26.3956 11.8448 26.5998 11.6685 26.6969 11.5669C26.8446 11.412 26.9301 11.2394 26.9144 11.1271" fill="white"/>
<path d="M33.8791 21.8216C33.7241 21.354 33.225 21.2036 32.396 21.3743C29.9344 21.881 29.0528 21.53 28.7634 21.3175C30.6767 18.4102 32.2508 14.8958 33.0999 11.617C33.5022 10.0638 33.7243 8.62132 33.7425 7.44559C33.7626 6.15518 33.5422 5.20691 33.0878 4.62764C31.2555 2.29241 28.5662 1.03977 25.3109 1.00541C23.073 0.980319 21.1822 1.55155 20.8156 1.71218C20.0437 1.52073 19.2022 1.40318 18.2861 1.38818C16.6061 1.36105 15.1538 1.76223 13.9515 2.58C13.4293 2.38609 12.0796 1.92395 10.429 1.65873C7.57538 1.20055 5.30776 1.54773 3.68956 2.69114C1.75868 4.05559 0.867274 6.49459 1.03995 9.94023C1.09806 11.0995 1.76032 14.6656 2.8054 18.0809C4.18106 22.576 5.67649 25.1206 7.24985 25.6441C7.43401 25.7054 7.64634 25.7482 7.88054 25.7482C8.45448 25.7482 9.15817 25.4902 9.8903 24.6123C10.7833 23.5438 11.707 22.5013 12.6604 21.486C13.2789 21.8171 13.9584 22.002 14.6533 22.0205C14.6547 22.0387 14.6565 22.0568 14.6581 22.0748C14.5385 22.2171 14.4213 22.3614 14.3067 22.5078C13.8252 23.1175 13.725 23.2444 12.175 23.5627C11.7341 23.6535 10.5631 23.8942 10.5459 24.7129C10.5273 25.6075 11.9301 25.9831 12.09 26.023C12.647 26.162 13.1836 26.2306 13.6953 26.2306C14.9399 26.2306 16.0351 25.8226 16.9104 25.0332C16.8835 28.2222 17.0168 31.3646 17.4007 32.322C17.7151 33.1058 18.4832 35.0213 20.9094 35.0212C21.2654 35.0212 21.6573 34.9799 22.0883 34.8877C24.6205 34.3463 25.7201 33.23 26.1455 30.7691C26.3731 29.4539 26.7637 26.3133 26.9475 24.6286C27.3352 24.7493 27.8344 24.8045 28.374 24.8044C29.4995 24.8044 30.7981 24.5659 31.6126 24.1889C32.5275 23.765 34.1785 22.7251 33.8791 21.8216V21.8216ZM27.849 10.438C27.8407 10.9353 27.772 11.3868 27.6993 11.858C27.6209 12.3649 27.54 12.889 27.5196 13.5251C27.4995 14.1442 27.5771 14.7878 27.652 15.4103C27.8035 16.6676 27.9589 17.962 27.3572 19.2391C27.2573 19.0625 27.1682 18.8799 27.0906 18.6925C27.0158 18.5116 26.8534 18.2212 26.6285 17.8192C25.7536 16.2543 23.7049 12.5896 24.7537 11.0943C25.0661 10.6492 25.8589 10.1915 27.849 10.438V10.438ZM25.4367 2.01245C28.3535 2.07668 30.6607 3.165 32.2943 5.247C33.5472 6.84395 32.1675 14.1104 28.1736 20.3791C28.1334 20.3282 28.093 20.2774 28.0524 20.2268L28.0018 20.1638C29.0339 18.4638 28.8321 16.7817 28.6525 15.2905C28.5787 14.6785 28.5089 14.1004 28.5267 13.5574C28.545 12.982 28.6213 12.4883 28.6951 12.011C28.7858 11.4229 28.8781 10.8143 28.8526 10.0969C28.8716 10.0216 28.8793 9.93273 28.8693 9.82718C28.8044 9.13923 28.0169 7.08027 26.4118 5.21673C25.5338 4.19741 24.2534 3.05673 22.5052 2.28736C23.2572 2.13191 24.2854 1.98695 25.4367 2.01245V2.01245ZM9.11552 23.9697C8.30888 24.9371 7.75188 24.7516 7.56868 24.6908C6.37513 24.2937 4.99016 21.7775 3.76913 17.7875C2.71257 14.3351 2.09515 10.8634 2.0462 9.88991C1.89198 6.81109 2.64024 4.66541 4.27034 3.51232C6.92323 1.63595 11.2848 2.75905 13.0374 3.32864C13.0123 3.35345 12.986 3.37664 12.9611 3.40186C10.0851 6.29877 10.1533 11.2482 10.1605 11.5508C10.1602 11.6675 10.17 11.8328 10.1834 12.0601C10.2329 12.8926 10.3251 14.442 10.079 16.1966C9.85038 17.8271 10.3543 19.423 11.4613 20.5751C11.5749 20.6931 11.6944 20.8054 11.8191 20.9116C11.3264 21.438 10.2555 22.602 9.11552 23.9697V23.9697ZM12.1888 19.8798C11.2966 18.9511 10.8914 17.6595 11.0769 16.3357C11.3366 14.4822 11.2408 12.868 11.1893 12.0007C11.182 11.8793 11.1756 11.773 11.1719 11.6891C11.592 11.3175 13.539 10.277 14.9276 10.5944C15.5611 10.739 15.9472 11.1694 16.1077 11.9096C16.9384 15.7418 16.2176 17.339 15.6385 18.6226C15.5191 18.887 15.4064 19.137 15.3101 19.3955L15.2355 19.5955C15.0465 20.1008 14.8707 20.5707 14.7617 21.0169C13.8132 21.0142 12.8905 20.61 12.1888 19.8796V19.8798ZM12.3344 25.048C12.0574 24.979 11.8083 24.8591 11.6622 24.7597C11.7843 24.7024 12.0015 24.6244 12.3783 24.547C14.2017 24.1726 14.4834 23.9084 15.0983 23.1296C15.2393 22.951 15.3991 22.7486 15.6205 22.502L15.6207 22.5018C15.9504 22.1336 16.1012 22.196 16.3746 22.3092C16.5962 22.4006 16.8121 22.6777 16.8996 22.9826C16.941 23.1266 16.9875 23.3999 16.8353 23.6126C15.5507 25.4066 13.6788 25.3835 12.3344 25.048V25.048ZM21.8773 33.905C19.6465 34.3818 18.8567 33.2465 18.3362 31.9488C18.0003 31.111 17.8352 27.3329 17.9523 23.1605C17.9538 23.105 17.9459 23.0515 17.9306 23.001C17.9169 22.9014 17.8961 22.8028 17.8682 22.7062C17.6941 22.0991 17.2696 21.5913 16.7603 21.3807C16.5579 21.2971 16.1866 21.1437 15.7404 21.2576C15.8355 20.8665 16.0005 20.4248 16.1795 19.9466L16.2546 19.7455C16.339 19.5187 16.4451 19.2837 16.5573 19.035C17.1633 17.6921 17.9933 15.8527 17.0925 11.6973C16.7551 10.1408 15.6282 9.38073 13.9201 9.55732C12.8961 9.663 11.9591 10.0751 11.4918 10.3114C11.3913 10.3621 11.2995 10.4112 11.2136 10.459C11.344 8.89077 11.8368 5.96005 13.68 4.10577C14.8406 2.9385 16.3862 2.36195 18.2694 2.39305C21.9799 2.45359 24.3594 4.35286 25.7022 5.93564C26.8594 7.29941 27.486 8.67327 27.7361 9.41427C25.8555 9.2235 24.5765 9.59373 23.9282 10.5183C22.5176 12.5294 24.6998 16.4326 25.7486 18.3086C25.9409 18.6524 26.1069 18.9495 26.1591 19.0758C26.5007 19.9013 26.9428 20.4525 27.2656 20.8548C27.3646 20.978 27.4606 21.0976 27.5336 21.2021C26.964 21.3659 25.9409 21.7443 26.0342 23.6358C25.959 24.5849 25.4243 29.0284 25.1526 30.5984C24.794 32.6725 24.0288 33.445 21.8773 33.9052V33.905ZM31.1883 23.2774C30.6059 23.547 29.6313 23.7492 28.7054 23.7927C27.6827 23.8405 27.1621 23.6785 27.0396 23.5788C26.9822 22.4 27.422 22.2769 27.8875 22.1465C27.9607 22.1261 28.0321 22.106 28.101 22.082C28.1438 22.1168 28.1907 22.1513 28.2421 22.1851C29.064 22.7262 30.53 22.7846 32.5998 22.3585L32.6225 22.354C32.3433 22.6143 31.8657 22.9636 31.1883 23.2774Z" fill="white"/>
</g>
<defs>
<clipPath id="clip0">
<rect width="35" height="36" fill="white"/>
</clipPath>
</defs>
</svg>
