<svg width="36" height="36" viewBox="0 0 36 36" fill="none" xmlns="http://www.w3.org/2000/svg">
<path d="M0 0H36V36H0V0Z" fill="#F7DF1E"/>
<path d="M9.46572 30.0842L12.2206 28.4169C12.7521 29.3593 13.2356 30.1566 14.3953 30.1566C15.507 30.1566 16.208 29.7218 16.208 28.0304V16.5275H19.591V28.0782C19.591 31.5821 17.537 33.1771 14.5403 33.1771C11.834 33.1771 10.2631 31.7755 9.46558 30.0839" fill="black"/>
<path d="M21.4286 29.7217L24.1832 28.1268C24.9084 29.311 25.8508 30.1809 27.5181 30.1809C28.92 30.1809 29.8138 29.4801 29.8138 28.5134C29.8138 27.3535 28.8955 26.9426 27.3489 26.2662L26.5033 25.9034C24.0625 24.8646 22.4435 23.5596 22.4435 20.8048C22.4435 18.2673 24.3767 16.334 27.3974 16.334C29.5482 16.334 31.0947 17.0833 32.2062 19.0406L29.5721 20.7323C28.992 19.6933 28.364 19.2825 27.3973 19.2825C26.4065 19.2825 25.7781 19.9108 25.7781 20.7323C25.7781 21.7472 26.4065 22.1583 27.8563 22.7866L28.702 23.149C31.5778 24.3816 33.1968 25.638 33.1968 28.4652C33.1968 31.5103 30.8045 33.1775 27.5905 33.1775C24.4491 33.1775 22.4192 31.6793 21.4285 29.7218" fill="black"/>
</svg>
