<svg width="73" height="73" viewBox="0 0 73 73" fill="none" xmlns="http://www.w3.org/2000/svg">
<path d="M36.1471 0C17.6611 0 18.8153 7.99878 18.8153 7.99878L18.8358 16.2858H36.4767V18.7737H11.8292C11.8292 18.7737 0 17.4351 0 36.0459C0 54.6571 10.3248 53.9971 10.3248 53.9971H16.4866V45.3608C16.4866 45.3608 16.1544 35.0589 26.6466 35.0589H44.1432C44.1432 35.0589 53.9732 35.2174 53.9732 25.5796V9.64406C53.9732 9.64406 55.4662 0 36.1471 0ZM26.4199 5.57283C26.8368 5.57246 27.2496 5.6541 27.6348 5.8131C28.02 5.9721 28.37 6.20533 28.6648 6.49944C28.9596 6.79356 29.1933 7.14278 29.3527 7.52713C29.512 7.91147 29.5939 8.3234 29.5935 8.73934C29.5939 9.15528 29.512 9.56721 29.3527 9.95155C29.1933 10.3359 28.9596 10.6851 28.6648 10.9792C28.37 11.2733 28.02 11.5066 27.6348 11.6656C27.2496 11.8246 26.8368 11.9062 26.4199 11.9058C26.003 11.9062 25.5902 11.8246 25.205 11.6656C24.8198 11.5066 24.4698 11.2733 24.175 10.9792C23.8803 10.6851 23.6465 10.3359 23.4872 9.95155C23.3278 9.56721 23.246 9.15528 23.2463 8.73934C23.246 8.3234 23.3278 7.91147 23.4872 7.52713C23.6465 7.14278 23.8803 6.79356 24.175 6.49944C24.4698 6.20533 24.8198 5.9721 25.205 5.8131C25.5902 5.6541 26.003 5.57246 26.4199 5.57283V5.57283Z" fill="url(#paint0_linear)"/>
<path d="M36.8532 73C55.3392 73 54.185 64.8531 54.185 64.8531L54.1644 56.4129H36.5233V53.8789H61.1708C61.1708 53.8789 73 55.2423 73 36.2863C73 17.3307 62.6752 18.0029 62.6752 18.0029H56.5134V26.7989C56.5134 26.7989 56.8456 37.2915 46.3534 37.2915H28.8568C28.8568 37.2915 19.0267 37.1301 19.0267 46.9467V63.1776C19.0267 63.1776 17.5341 73 36.8529 73H36.8532ZM46.5804 67.3245C46.1635 67.3249 45.7507 67.2418 45.3655 67.0798C44.9802 66.9179 44.6302 66.6803 44.3355 66.3808C44.0407 66.0812 43.807 65.7255 43.6476 65.3341C43.4882 64.9426 43.4064 64.523 43.4068 64.0994C43.4064 63.6757 43.4882 63.2561 43.6475 62.8646C43.8069 62.4731 44.0406 62.1174 44.3354 61.8178C44.6301 61.5182 44.9802 61.2807 45.3654 61.1187C45.7506 60.9567 46.1635 60.8736 46.5804 60.874C46.9972 60.8736 47.4101 60.9567 47.7953 61.1187C48.1805 61.2806 48.5305 61.5182 48.8253 61.8177C49.12 62.1173 49.3538 62.473 49.5131 62.8644C49.6725 63.2559 49.7543 63.6755 49.7539 64.0991C49.7543 64.5227 49.6725 64.9423 49.5131 65.3338C49.3538 65.7252 49.12 66.0809 48.8253 66.3805C48.5305 66.68 48.1805 66.9176 47.7953 67.0795C47.4101 67.2415 46.9972 67.3246 46.5804 67.3243V67.3245Z" fill="url(#paint1_linear)"/>
<defs>
<linearGradient id="paint0_linear" x1="6.99786" y1="6.50106" x2="43.0051" y2="42.2285" gradientUnits="userSpaceOnUse">
<stop stop-color="#387EB8"/>
<stop offset="1" stop-color="#366994"/>
</linearGradient>
<linearGradient id="paint1_linear" x1="29.3291" y1="29.3185" x2="68.6713" y2="65.9151" gradientUnits="userSpaceOnUse">
<stop stop-color="#FFE052"/>
<stop offset="1" stop-color="#FFC331"/>
</linearGradient>
</defs>
</svg>
